<svg width="250" height="222" viewBox="0 0 250 222" fill="none" xmlns="http://www.w3.org/2000/svg">
<path d="M250 55.4192V166.17C250 180.853 244.173 194.935 233.799 205.326C223.425 215.717 209.351 221.566 194.669 221.589H55.4191C40.721 221.589 26.6249 215.75 16.2318 205.357C5.83869 194.964 0 180.868 0 166.17V55.4192C0 40.7212 5.83869 26.6249 16.2318 16.2318C26.6249 5.83869 40.721 0 55.4191 0H166.257V55.4192H69.2739C65.5994 55.4192 62.0753 56.8789 59.477 59.4772C56.8788 62.0755 55.4191 65.5994 55.4191 69.2739V152.315C55.4191 155.99 56.8788 159.513 59.477 162.112C62.0753 164.71 65.5994 166.17 69.2739 166.17H180.551C182.37 166.17 184.172 165.812 185.853 165.115C187.534 164.419 189.061 163.398 190.348 162.112C191.634 160.825 192.655 159.298 193.351 157.617C194.047 155.936 194.406 154.134 194.406 152.315V0.263055C209.088 0.216425 223.19 5.99862 233.613 16.3399C244.037 26.6812 249.93 40.7364 250 55.4192V55.4192Z" fill="#A36836"/>
</svg>
